<?xml version="1.0" encoding="UTF-8" standalone="no"?>
<!-- Created with Inkscape (http://www.inkscape.org/) -->

<svg
   xmlns:dc="http://purl.org/dc/elements/1.1/"
   xmlns:cc="http://creativecommons.org/ns#"
   xmlns:rdf="http://www.w3.org/1999/02/22-rdf-syntax-ns#"
   xmlns:svg="http://www.w3.org/2000/svg"
   xmlns="http://www.w3.org/2000/svg"
   xmlns:sodipodi="http://sodipodi.sourceforge.net/DTD/sodipodi-0.dtd"
   xmlns:inkscape="http://www.inkscape.org/namespaces/inkscape"
   width="55.000008"
   height="55.000011"
   id="svg2"
   version="1.1"
   inkscape:version="0.48.4 r9939"
   sodipodi:docname="drawing-3.svg">
  <defs
     id="defs4" />
  <sodipodi:namedview
     id="base"
     pagecolor="#ffffff"
     bordercolor="#666666"
     borderopacity="1.0"
     inkscape:pageopacity="0.0"
     inkscape:pageshadow="2"
     inkscape:zoom="0.35"
     inkscape:cx="-300.00001"
     inkscape:cy="135.00003"
     inkscape:document-units="px"
     inkscape:current-layer="layer1"
     showgrid="false"
     inkscape:window-width="1301"
     inkscape:window-height="744"
     inkscape:window-x="65"
     inkscape:window-y="24"
     inkscape:window-maximized="1"
     fit-margin-top="0"
     fit-margin-left="0"
     fit-margin-right="0"
     fit-margin-bottom="0" />
  <metadata
     id="metadata7">
    <rdf:RDF>
      <cc:Work
         rdf:about="">
        <dc:format>image/svg+xml</dc:format>
        <dc:type
           rdf:resource="http://purl.org/dc/dcmitype/StillImage" />
        <dc:title></dc:title>
      </cc:Work>
    </rdf:RDF>
  </metadata>
  <g
     inkscape:label="Layer 1"
     inkscape:groupmode="layer"
     id="layer1"
     transform="translate(131.7857,-1022.0051)">
    <g
       id="g3051"
       transform="matrix(0.02160708,0,0,-0.02146154,-131.7857,1076.9466)"
       style="fill:#000000;stroke:none">
      <path
         id="path3053"
         d="M 25,2520 C 6,2490 0,2199 0,1271 L 0,62 44,31 c 57,-39 1760,-47 1940,-9 737,157 753,1242 21,1394 l -75,16 -5,339 -6,339 -224,225 -224,225 -711,0 c -687,0 -711,-1 -735,-40 z m 1255,-360 0,-240 241,0 240,0 -5,-243 -6,-243 -93,-23 c -74,-19 -100,-18 -129,3 -19,14 -87,26 -150,26 -110,0 -117,3 -178,80 l -63,80 -177,0 -177,0 -63,-80 c -61,-77 -67,-80 -183,-80 -201,0 -217,-29 -217,-397 0,-415 -27,-390 441,-403 l 365,-10 26,-105 c 32,-122 68,-186 166,-290 l 70,-75 -614,0 -614,0 0,1120 0,1120 560,0 560,0 0,-240 z m 310,60 139,-140 -145,0 -144,0 0,140 c 0,77 2,140 6,140 3,0 68,-63 144,-140 z M 1122,1202 c 88,-88 94,-122 40,-248 -83,-192 -305,-210 -409,-33 -143,241 171,480 369,281 z m 890,48 c 313,-92 477,-489 324,-780 -180,-344 -616,-413 -887,-142 -415,415 -3,1090 563,922 z"
         inkscape:connector-curvature="0" />
      <path
         id="path3055"
         d="m 1760,960 0,-160 -160,0 -160,0 0,-80 0,-80 160,0 160,0 0,-160 0,-160 80,0 80,0 0,160 0,160 160,0 160,0 0,80 0,80 -160,0 -160,0 0,160 0,160 -80,0 -80,0 0,-160 z"
         inkscape:connector-curvature="0" />
    </g>
    <path
       style="fill:#ffffff;fill-opacity:1;stroke:#ffffff;stroke-width:0.98441964;stroke-opacity:1"
       d="m -128.31277,1049.2843 0,-23.5463 11.85302,0 11.85302,0 0,5.396 0,5.3961 4.938763,0 4.93876,0 0,5.0168 0,5.017 -4.691822,-0.6892 c -2.580501,-0.379 -5.393551,-1.3121 -6.251221,-2.0736 -2.08293,-1.8492 -9.21769,-1.7916 -10.7875,0.087 -0.6763,0.8094 -2.49304,1.4717 -4.0372,1.4717 -1.76483,0 -3.18731,0.7048 -3.83006,1.8977 -1.43083,2.6555 -1.31334,14.4866 0.15279,15.3866 0.64642,0.3968 4.53569,0.9266 8.64283,1.1772 l 7.46753,0.4558 2.07661,4.2767 2.07661,4.2767 -12.20107,0 -12.20106,0 0,-23.5463 z"
       id="path3064"
       inkscape:connector-curvature="0" />
    <path
       style="fill:#ffffff;fill-opacity:1;stroke:#ffffff;stroke-width:2.85714293;stroke-opacity:1"
       d=""
       id="path3066"
       inkscape:connector-curvature="0" />
    <path
       style="fill:#ffffff;fill-opacity:1;stroke:#ffffff;stroke-width:0.98441964;stroke-opacity:1"
       d="m -100.65572,1030.1529 c 0,-1.8853 1.387927,-1.8853 2.963256,0 1.027327,1.2295 0.88471,1.4717 -0.866806,1.4717 -1.20501,0 -2.09645,-0.6258 -2.09645,-1.4717 z"
       id="path3068"
       inkscape:connector-curvature="0" />
    <path
       style="fill:#ffffff;fill-opacity:1;stroke:#ffffff;stroke-width:0.98441964;stroke-opacity:1"
       d="m -99.109119,1069.8125 c -8.357501,-7.2886 -3.411491,-19.5471 7.886766,-19.5471 2.782755,0 4.37092,0.7608 6.963316,3.3358 10.194939,10.1263 -4.0261,25.6508 -14.850082,16.2113 z m 9.318671,-2.3778 c 0,-3.2704 0.164626,-3.4339 3.457131,-3.4339 3.029107,0 3.457131,-0.3037 3.457131,-2.4527 0,-2.1491 -0.428024,-2.4528 -3.457131,-2.4528 -3.292505,0 -3.457131,-0.1635 -3.457131,-3.4338 0,-3.0087 -0.305733,-3.4339 -2.469379,-3.4339 -2.163647,0 -2.46938,0.4252 -2.46938,3.4339 0,3.2831 -0.154812,3.4338 -3.525832,3.4338 -3.091441,0 -3.486941,0.272 -3.210191,2.2075 0.24192,1.6919 1.06539,2.2793 3.525828,2.5149 2.774647,0.2657 3.210195,0.6762 3.210195,3.0251 0,3.1841 0.653931,4.0257 3.127882,4.0257 1.411072,0 1.810877,-0.7581 1.810877,-3.4338 z"
       id="path3070"
       inkscape:connector-curvature="0" />
    <path
       style="fill:#ffffff;fill-opacity:1;stroke:#ffffff;stroke-width:0.15478379;stroke-opacity:1"
       d="m -100.636,1031.7299 c 0,-0.2373 -0.10561,-0.6759 -0.2347,-0.9747 -0.2234,-0.517 -0.2234,-0.5854 0,-1.4209 0.12909,-0.4827 0.2347,-1.0776 0.2347,-1.322 0,-0.2444 0.0366,-0.6878 0.0814,-0.9853 l 0.0815,-0.5409 1.765219,1.7104 c 1.980298,1.9187 3.846931,3.8134 3.846931,3.9046 0,0.033 -1.299388,0.06 -2.887529,0.06 l -2.887531,0 0,-0.4315 z"
       id="path3110"
       inkscape:connector-curvature="0" />
    <path
       style="fill:#ffffff;fill-opacity:1;stroke:#ffffff;stroke-width:0.15478379;stroke-opacity:1"
       d="m -112.95352,1059.3841 c -1.32522,-0.5732 -2.32972,-1.6944 -2.91664,-3.2555 -0.43607,-1.1599 -0.43831,-2.0638 -0.008,-3.2109 0.38801,-1.0342 1.09698,-1.8558 2.15838,-2.5012 2.17448,-1.3223 4.58667,-0.8445 6.56983,1.3012 0.7844,0.8487 1.14175,1.5571 1.14175,2.2633 0,0.6872 -0.89399,2.8726 -1.51369,3.7002 -0.31241,0.4172 -0.96085,1.0045 -1.44099,1.305 -0.75253,0.471 -1.049,0.5531 -2.14886,0.5945 -0.81195,0.031 -1.48167,-0.041 -1.84183,-0.1966 z"
       id="path3112"
       inkscape:connector-curvature="0" />
    <path
       style="fill:#ffffff;fill-opacity:1;stroke:#ffffff;stroke-width:0.15478379;stroke-opacity:1"
       d="m -94.100123,1073.1856 c -3.167166,-0.665 -5.863195,-2.4511 -7.785757,-5.1581 -0.94859,-1.3356 -1.45821,-2.4368 -1.86212,-4.024 -0.39377,-1.5473 -0.3018,-4.1708 0.20335,-5.8005 0.78908,-2.5457 2.60991,-4.9773 4.856055,-6.4849 5.128579,-3.4424 11.921178,-2.498 15.671801,2.1787 1.696583,2.1155 2.497365,4.0024 2.800729,6.5994 0.313292,2.682 -0.393703,5.2734 -2.093505,7.6734 -2.314496,3.2679 -5.376095,4.9705 -9.193778,5.1129 -0.997205,0.037 -2.165753,-0.01 -2.596775,-0.097 z m 3.66648,-3.3728 c 0.08026,-0.1992 0.139029,-1.632 0.139029,-3.3894 l 0,-3.0443 3.12256,0 c 3.784447,0 3.776519,-1e-4 3.835193,-1.5106 0.05995,-1.5434 -0.02559,-1.8288 -0.61295,-2.0455 -0.276427,-0.102 -1.817091,-0.1859 -3.423698,-0.1864 l -2.921105,-10e-4 0,-3.109 c 0,-2.5886 -0.03533,-3.156 -0.211049,-3.3894 -0.167241,-0.2221 -0.529657,-0.2803 -1.745948,-0.2803 l -1.5349,0 0,3.3894 0,3.3893 -3.324016,0 c -1.828209,0 -3.402543,0.069 -3.498523,0.1498 -0.12238,0.1031 -0.1625,0.5125 -0.1343,1.3705 0.0377,1.1474 0.0653,1.2429 0.44311,1.5345 0.551906,0.4258 2.305872,0.6886 4.596379,0.6886 l 1.91735,0 0,3.2021 c 0,2.8615 0.02501,3.2215 0.235032,3.384 0.129267,0.1 0.852381,0.1842 1.606919,0.1872 1.221267,0 1.387152,-0.032 1.510917,-0.3396 l 0,0 z"
       id="path3114"
       inkscape:connector-curvature="0" />
    <path
       style="fill:#ffffff;fill-opacity:1;stroke:#ffffff;stroke-width:0.15478379;stroke-opacity:1"
       d="m -94.251346,1073.1704 c -3.431222,-0.664 -6.974974,-3.4281 -8.623034,-6.726 -1.06029,-2.1217 -1.41834,-5.0293 -0.90619,-7.3588 1.24952,-5.6832 6.532627,-9.7017 12.344374,-9.3893 1.789891,0.096 3.063657,0.3832 4.36487,0.9836 5.366335,2.4761 8.269685,9.1832 6.319815,14.5995 -1.748219,4.8562 -6.37811,8.1451 -11.356203,8.067 -0.738671,-0.012 -1.703305,-0.091 -2.143632,-0.176 z m 3.711125,-3.3078 c 0.219828,-0.2642 0.245607,-0.6177 0.245607,-3.3674 l 0,-3.0722 3.305764,-0.075 c 3.053277,-0.069 3.319982,-0.1005 3.491896,-0.4128 0.242006,-0.4396 0.243403,-2.2383 0.0021,-2.6767 -0.250877,-0.4557 -1.208968,-0.5924 -4.281544,-0.6107 l -2.518198,-0.015 0,-3.1116 c 0,-3.8346 0.09341,-3.6671 -2.044439,-3.6671 l -1.447458,0 0,3.3894 0,3.3893 -2.666372,0 c -1.466505,0 -3.039658,0.052 -3.495896,0.1152 l -0.829519,0.1151 0.0232,1.1197 c 0.0127,0.6158 0.0599,1.195 0.10473,1.287 0.32899,0.6754 2.420572,1.1087 5.352951,1.109 l 1.510916,10e-5 0,3.2167 c 0,3.7806 -0.125947,3.5325 1.802525,3.5507 0.935058,0.01 1.252091,-0.053 1.443765,-0.2839 l 0,0 z"
       id="path3116"
       inkscape:connector-curvature="0" />
    <path
       style="fill:#ffffff;fill-opacity:1;stroke:#ffffff;stroke-width:0.15478379;stroke-opacity:1"
       d="m -94.638631,1073.0839 c -1.884836,-0.4523 -3.885646,-1.5061 -5.325849,-2.805 -0.95284,-0.8594 -2.40807,-2.7877 -2.97615,-3.9435 -0.71346,-1.4517 -1.05296,-3.0044 -1.05296,-4.8157 0,-2.7056 0.69033,-4.7585 2.34973,-6.9879 1.59044,-2.1367 3.422496,-3.4592 6.050758,-4.3679 1.040146,-0.3596 1.528137,-0.4162 3.619691,-0.4198 2.650112,0 3.74112,0.2491 5.709816,1.3274 4.175744,2.2871 6.809855,7.7199 5.989823,12.3538 -0.845601,4.7784 -4.567386,8.666 -9.265402,9.6781 -1.509237,0.3251 -3.698458,0.3168 -5.099457,-0.019 z m 4.102332,-3.247 c 0.125802,-0.167 0.187517,-1.0938 0.22104,-3.3192 l 0.04651,-3.0875 3.171881,-0.1288 c 1.744534,-0.071 3.272816,-0.2006 3.396183,-0.2883 0.482756,-0.3432 0.470994,-2.6792 -0.01523,-3.0249 -0.135627,-0.096 -1.666468,-0.2284 -3.401872,-0.2933 l -3.155281,-0.118 -0.04435,-3.0852 c -0.03197,-2.2239 -0.09299,-3.1497 -0.218589,-3.3167 -0.122096,-0.1622 -0.624518,-0.2315 -1.678796,-0.2315 l -1.504555,0 -0.03646,3.3163 -0.03646,3.3163 -3.380963,0.119 c -2.459709,0.087 -3.411609,0.1793 -3.493439,0.3406 -0.15024,0.2961 0.011,2.1314 0.20937,2.3835 0.35504,0.451 1.236409,0.6389 3.884,0.828 l 2.786801,0.199 0,2.809 c 0,3.0468 0.08997,3.6508 0.563555,3.7838 0.622655,0.1747 2.509748,0.033 2.686657,-0.2021 l 0,0 z"
       id="path3118"
       inkscape:connector-curvature="0" />
    <path
       style="fill:#ffffff;fill-opacity:1;stroke:#ffffff;stroke-width:0.15478379;stroke-opacity:1"
       d="m -94.68176,1073.1159 c -3.395019,-0.8579 -6.64902,-3.4858 -8.22193,-6.6399 -1.3275,-2.662 -1.49146,-6.0563 -0.43009,-8.9034 1.6961,-4.5498 5.768495,-7.6061 10.487395,-7.8709 3.868669,-0.217 6.648451,0.8078 9.207442,3.3947 2.677165,2.7063 4.041513,6.995 3.348895,10.5269 -0.820594,4.1846 -3.911325,7.7467 -7.932446,9.1424 -1.650486,0.5728 -4.88451,0.7482 -6.459266,0.3502 l 0,0 z m 4.086005,-3.3863 c 0.115585,-0.1448 0.196245,-1.1729 0.255456,-3.2559 l 0.08654,-3.0443 1.289034,-0.1134 c 0.708971,-0.062 2.074713,-0.1149 3.034985,-0.1168 1.99534,0 2.3084,-0.077 2.425818,-0.5686 0.158335,-0.6626 0.08081,-2.1529 -0.126302,-2.428 -0.195043,-0.259 -2.953673,-0.5314 -5.669721,-0.5597 l -0.952738,-0.01 -0.0825,-3.0499 c -0.05143,-1.9015 -0.141372,-3.1441 -0.238864,-3.3001 -0.116444,-0.1864 -0.525096,-0.2503 -1.600477,-0.2503 l -1.444108,0 -0.08394,0.5575 c -0.04617,0.3066 -0.08394,1.7916 -0.08394,3.3001 l 0,2.7427 -1.30946,0.024 c -0.720204,0.013 -2.24623,0.073 -3.391169,0.1338 l -2.081709,0.1102 0,1.2487 0,1.2487 0.720121,0.3172 c 0.513511,0.2262 1.476836,0.3661 3.357593,0.4874 1.45061,0.094 2.644969,0.1716 2.654132,0.1733 0.0092,0 0.04281,1.4059 0.07478,3.1203 0.03197,1.7143 0.09935,3.1718 0.149737,3.2387 0.320281,0.4254 2.676241,0.4213 3.016732,-0.01 l 0,0 z"
       id="path3120"
       inkscape:connector-curvature="0" />
    <path
       style="fill:#ffffff;fill-opacity:1;stroke:#ffffff;stroke-width:0.15478379;stroke-opacity:1"
       d="m -112.95352,1059.3822 c -1.33895,-0.5747 -2.50953,-1.9126 -3.02339,-3.4555 -0.35932,-1.0789 -0.27246,-2.2571 0.24945,-3.3836 0.94619,-2.0422 3.68575,-3.3496 5.70499,-2.7225 2.01793,0.6267 4.01226,2.6761 4.01382,4.1247 7.5e-4,0.6992 -0.87017,2.8738 -1.49156,3.7243 -0.30087,0.4118 -0.94946,1.0019 -1.44131,1.3115 -0.78292,0.4926 -1.05316,0.5678 -2.17017,0.6033 -0.7923,0.025 -1.49039,-0.051 -1.84183,-0.2022 z"
       id="path3122"
       inkscape:connector-curvature="0" />
    <path
       style="fill:#ffffff;fill-opacity:1;stroke:#ffffff;stroke-width:0.15478379;stroke-opacity:1"
       d="m -112.79048,1059.4751 c -1.89225,-0.659 -3.53998,-3.1813 -3.39425,-5.1957 0.17203,-2.378 2.08078,-4.3099 4.52704,-4.582 1.61758,-0.1799 3.34517,0.6073 4.63058,2.1102 1.15827,1.3542 1.25323,2.0432 0.54065,3.9227 -0.5738,1.5134 -1.40691,2.6378 -2.44725,3.303 -0.65593,0.4194 -0.96346,0.4976 -2.11082,0.5365 -0.73867,0.025 -1.52435,-0.017 -1.74595,-0.095 l 0,0 z"
       id="path3124"
       inkscape:connector-curvature="0" />
    <path
       style="fill:#ffffff;fill-opacity:1;stroke:#ffffff;stroke-width:0.15478379;stroke-opacity:1"
       d="m -100.636,1031.7299 c 0,-0.2373 -0.10561,-0.6759 -0.2347,-0.9747 -0.2234,-0.517 -0.2234,-0.5854 0,-1.4209 0.12909,-0.4827 0.23895,-1.188 0.24414,-1.5673 0.0204,-1.4912 -0.0266,-1.5141 2.978818,1.4539 1.532741,1.5136 2.786802,2.7945 2.786802,2.8463 0,0.052 -1.299388,0.094 -2.887529,0.094 l -2.887531,0 0,-0.4315 z"
       id="path3126"
       inkscape:connector-curvature="0" />
    <path
       style="fill:#ffffff;fill-opacity:1;stroke:#ffffff;stroke-width:0.15478379;stroke-opacity:1"
       d="m -100.81302,1031.1176 c -0.22753,-0.9698 -0.22982,-1.1144 -0.0336,-2.1203 0.11583,-0.5937 0.21153,-1.3087 0.21266,-1.5889 0.004,-1.0754 0.13964,-1.0092 2.352983,1.1521 1.179272,1.1516 2.466852,2.4329 2.861287,2.8473 l 0.717154,0.7536 -2.933165,0 -2.933169,0 -0.24417,-1.0408 z"
       id="path3128"
       inkscape:connector-curvature="0" />
    <path
       style="fill:#ffffff;fill-opacity:1;stroke:#ffffff;stroke-width:0.15478379;stroke-opacity:1"
       d="m -128.70547,1049.2866 0,-24.0823 12.20727,0 c 11.00753,0 12.21528,0.028 12.28878,0.2822 0.0448,0.1552 0.0815,2.5634 0.0815,5.3516 l 0,5.0695 5.178144,0 5.178147,0 -0.07816,2.8987 c -0.149671,5.5508 -0.233166,7.2693 -0.353183,7.2693 -0.06643,0 -0.120781,0.2424 -0.120781,0.5386 0,0.4693 -0.03885,0.5256 -0.302183,0.4382 -0.166202,-0.055 -1.118079,-0.1729 -2.115284,-0.2614 -0.997205,-0.089 -2.266375,-0.282 -2.820377,-0.4297 -0.554003,-0.1478 -1.702303,-0.3207 -2.551773,-0.3842 -1.96567,-0.1471 -2.40182,-0.2985 -3.10362,-1.0773 -0.31409,-0.3485 -0.78679,-0.7786 -1.05046,-0.9557 -1.91523,-1.2864 -7.70286,-1.286 -9.56792,7e-4 -0.172,0.1187 -0.55448,0.4737 -0.84995,0.7888 -0.914,0.975 -1.09517,1.0411 -3.23247,1.1797 -1.11306,0.072 -2.26733,0.2183 -2.56506,0.3248 -1.77418,0.6345 -2.28109,2.3054 -2.4132,7.9542 -0.0571,2.4393 -0.0244,3.6503 0.13586,5.0391 0.26499,2.2963 0.46174,2.8284 1.13498,3.0692 1.48367,0.5306 7.12093,1.0694 11.25055,1.0752 1.33673,0 2.98166,0.055 3.65542,0.1189 l 1.225,0.1155 0.27969,1.0886 c 0.15384,0.5988 0.8078,2.1695 1.45326,3.4906 1.14077,2.3348 1.55686,2.9358 3.24501,4.6877 l 0.47006,0.4878 -13.32964,0 -13.32964,0 0,-24.0822 z"
       id="path3130"
       inkscape:connector-curvature="0" />
  </g>
</svg>
