<?xml version="1.0" encoding="UTF-8" standalone="no"?>
<!-- Created with Inkscape (http://www.inkscape.org/) -->

<svg
   xmlns:dc="http://purl.org/dc/elements/1.1/"
   xmlns:cc="http://creativecommons.org/ns#"
   xmlns:rdf="http://www.w3.org/1999/02/22-rdf-syntax-ns#"
   xmlns:svg="http://www.w3.org/2000/svg"
   xmlns="http://www.w3.org/2000/svg"
   xmlns:sodipodi="http://sodipodi.sourceforge.net/DTD/sodipodi-0.dtd"
   xmlns:inkscape="http://www.inkscape.org/namespaces/inkscape"
   width="55.000008"
   height="55.000004"
   id="svg2"
   version="1.1"
   inkscape:version="0.48.4 r9939"
   sodipodi:docname="New document 1">
  <defs
     id="defs4" />
  <sodipodi:namedview
     id="base"
     pagecolor="#ffffff"
     bordercolor="#666666"
     borderopacity="1.0"
     inkscape:pageopacity="0.0"
     inkscape:pageshadow="2"
     inkscape:zoom="0.35"
     inkscape:cx="-740.73436"
     inkscape:cy="-258.23182"
     inkscape:document-units="px"
     inkscape:current-layer="layer1"
     showgrid="false"
     fit-margin-top="0"
     fit-margin-left="0"
     fit-margin-right="0"
     fit-margin-bottom="0"
     inkscape:window-width="1301"
     inkscape:window-height="744"
     inkscape:window-x="65"
     inkscape:window-y="24"
     inkscape:window-maximized="1" />
  <metadata
     id="metadata7">
    <rdf:RDF>
      <cc:Work
         rdf:about="">
        <dc:format>image/svg+xml</dc:format>
        <dc:type
           rdf:resource="http://purl.org/dc/dcmitype/StillImage" />
        <dc:title></dc:title>
      </cc:Work>
    </rdf:RDF>
  </metadata>
  <g
     inkscape:label="Layer 1"
     inkscape:groupmode="layer"
     id="layer1"
     transform="translate(-349.64286,-590.57646)">
    <g
       id="g2989"
       transform="matrix(0.02020674,0,0,-0.02919486,346.93228,666.59659)"
       style="fill:#000000;stroke:none">
      <path
         id="path2991"
         d="m 1633,2599 c -197,-23 -407,-139 -572,-315 -39,-42 -71,-80 -71,-84 0,-5 -26,1 -57,13 -45,17 -81,22 -158,22 -88,0 -107,-3 -158,-27 -74,-35 -147,-110 -189,-195 -28,-58 -33,-78 -36,-165 l -4,-99 -55,-57 C 173,1527 109,1355 143,1187 c 9,-42 31,-107 49,-144 45,-92 158,-206 254,-256 133,-69 102,-67 1076,-67 835,0 880,1 927,19 128,48 292,195 350,313 98,198 69,399 -82,564 -33,36 -86,83 -118,104 -57,39 -58,41 -64,97 -42,360 -234,624 -532,733 -131,47 -249,63 -370,49 z m 233,-129 c 224,-56 405,-211 490,-421 32,-77 64,-225 64,-294 l 0,-51 64,-42 c 137,-90 233,-231 243,-355 4,-50 0,-78 -22,-142 -47,-142 -131,-241 -248,-295 l -62,-28 -865,-6 c -943,-7 -913,-9 -1020,50 -106,58 -217,211 -251,347 -28,112 25,238 158,378 l 87,91 0,106 c 1,99 3,111 31,161 32,58 95,113 152,132 21,7 71,10 123,7 73,-3 98,-9 151,-35 35,-18 64,-31 64,-30 12,27 122,160 177,213 122,119 278,205 408,227 68,11 182,6 256,-13 z"
         inkscape:connector-curvature="0" />
      <path
         id="path2993"
         d="m 1045,1762 c -173,-60 -267,-226 -221,-386 39,-133 229,-236 382,-207 64,12 158,48 183,69 20,17 20,18 -23,66 l -43,48 -41,-27 c -48,-32 -135,-43 -199,-26 -107,29 -147,180 -71,276 49,63 173,93 244,59 37,-18 127,-105 239,-231 188,-212 312,-271 484,-233 115,26 218,105 240,186 16,57 13,153 -5,207 -22,64 -92,140 -162,174 -49,24 -69,28 -142,28 -79,0 -91,-3 -172,-42 -49,-23 -88,-48 -88,-55 0,-7 16,-31 34,-53 32,-38 35,-39 52,-24 79,69 226,70 285,3 32,-37 49,-84 49,-136 0,-73 -24,-118 -80,-146 -38,-20 -55,-23 -113,-18 -117,9 -168,47 -349,263 -160,190 -325,260 -483,205 z"
         inkscape:connector-curvature="0" />
    </g>
    <path
       style="fill:#ffffff;fill-opacity:1;stroke:#ffffff;stroke-width:0.55516648;stroke-opacity:1"
       d="m 356.70801,639.50594 c -1.22252,-1.3472 -2.51563,-3.67093 -3.3421,-6.00578 -1.24441,-3.51559 -1.30532,-4.0144 -0.79225,-6.48856 0.30568,-1.47412 1.48171,-4.32263 2.61338,-6.33004 1.71754,-3.04663 2.05789,-4.12012 2.05933,-6.49534 0.002,-3.16667 1.2448,-6.67139 2.78943,-7.86576 0.9596,-0.742 4.45561,-0.59098 6.90807,0.2984 0.97313,0.3529 1.37253,-0.0171 2.54028,-2.35296 3.11886,-6.23881 8.61408,-10.39345 12.90149,-9.75413 6.91305,1.03086 12.09774,8.59245 12.99344,18.95027 0.26804,3.09961 0.54203,3.85901 1.95305,5.41321 2.70558,2.98015 4.25187,6.58884 4.25187,9.92295 0,4.38193 -1.61607,8.71866 -4.09559,10.99058 l -2.08955,1.91459 -18.3484,0 -18.3484,0 -1.99405,-2.19743 z m 17.336,-7.89493 c 1.36786,-0.90046 1.50388,-1.75769 0.57129,-3.60039 -0.55506,-1.09674 -0.80871,-1.15933 -1.86921,-0.4612 -2.00381,1.31911 -4.26175,1.01911 -5.08322,-0.67537 -1.03419,-2.13327 -0.88706,-4.34054 0.41468,-6.22131 2.17213,-3.1383 3.45459,-2.41046 8.78224,4.98422 4.28798,5.95165 4.99087,6.6698 6.94185,7.0925 7.26555,1.57417 11.24002,-8.9858 5.92138,-15.7328 -1.56668,-1.98743 -1.8633,-2.11026 -4.492,-1.86028 -1.65459,0.15734 -3.32947,0.76022 -4.06393,1.46281 -1.08068,1.03379 -1.17423,1.37277 -0.6928,2.51053 0.41259,0.9751 0.85526,1.20695 1.71124,0.89627 3.08746,-1.12063 3.97389,-1.08548 5.07366,0.20118 1.42479,1.66691 1.56415,5.83031 0.24192,7.2272 -2.25149,2.37864 -5.13659,0.65249 -8.62523,-5.16045 -3.04327,-5.07084 -5.34404,-7.23613 -8.15273,-7.67266 -5.8208,-0.90468 -9.77845,8.58311 -6.10307,14.63111 0.75413,1.24096 2.05313,2.58748 2.88667,2.99228 1.73311,0.84166 4.75787,0.55773 6.53726,-0.61364 z"
       id="path3022"
       inkscape:connector-curvature="0" />
    <path
       style="fill:#ffffff;fill-opacity:1;stroke:#ffffff;stroke-width:0.55516648;stroke-opacity:1"
       d="m 357.37408,640.38834 c -1.8322,-1.61406 -4.12209,-6.07987 -4.80422,-9.36935 -0.42894,-2.06848 -0.36579,-2.92992 0.39567,-5.39764 0.49833,-1.61499 1.665,-4.24099 2.59259,-5.83555 1.31826,-2.26615 1.68652,-3.4755 1.68652,-5.53846 0,-3.08008 0.954,-6.06438 2.40947,-7.53729 1.17048,-1.1845 4.76137,-1.38248 6.61425,-0.36467 1.14416,0.62851 1.45118,0.35325 4.30235,-3.8572 4.888,-7.21837 9.3094,-9.42091 14.51909,-7.23275 3.03676,1.2755 6.04439,4.40221 7.78858,8.09699 1.29547,2.74423 2.70133,8.84776 2.70133,11.7278 0,1.1437 0.65073,2.43591 2.12065,4.21115 1.16635,1.40862 2.51654,3.49917 3.00041,4.64566 1.98054,4.69269 0.52243,12.22052 -3.05608,15.77775 l -2.00048,1.98859 -18.39152,-0.002 c -17.46192,-0.002 -18.46667,-0.0687 -19.87861,-1.31254 z m 16.10655,-8.60343 c 1.68485,-0.92981 2.00814,-1.95249 1.08375,-3.42826 -0.61611,-0.98363 -1.02709,-1.11728 -1.92278,-0.62527 -0.62655,0.34418 -1.8413,0.62577 -2.69946,0.62577 -2.85268,0 -3.97821,-4.65063 -1.86459,-7.70441 2.14733,-3.10248 3.46299,-2.38589 8.56135,4.66305 4.85953,6.71872 6.91998,8.25279 9.85756,7.33927 3.85466,-1.19872 5.3883,-3.67322 5.3883,-8.69392 0,-5.49692 -2.53314,-8.95277 -6.55868,-8.94772 -1.93358,0.002 -4.98802,1.98803 -4.98802,3.24255 0,1.05468 1.12813,1.93089 2.0784,1.61427 3.93544,-1.31124 5.52314,-0.37205 6.05101,3.57939 0.51724,3.87185 -2.64597,6.26623 -5.50404,4.16628 -0.55486,-0.40768 -2.67156,-3.09789 -4.70378,-5.97823 -5.06785,-7.18286 -7.10527,-8.23618 -11.36576,-5.87595 -2.42108,1.34124 -4.16917,6.81769 -3.4668,10.86091 0.15998,0.92097 1.01954,2.47749 1.91013,3.45892 2.46176,2.71288 5.25531,3.2972 8.14341,1.70335 l 0,0 z"
       id="path3024"
       inkscape:connector-curvature="0" />
    <path
       style="fill:#ffffff;fill-opacity:1;stroke:#ffffff;stroke-width:0.55516648;stroke-opacity:1"
       d="m 357.93744,640.92645 c -3.15178,-2.51238 -6.04418,-9.23217 -5.61573,-13.04681 0.13912,-1.23862 1.21078,-4.19139 2.38148,-6.56171 1.61322,-3.26631 2.23135,-5.23805 2.55324,-8.14441 0.33648,-3.03819 0.7312,-4.23468 1.90023,-5.76014 1.43288,-1.86976 1.57976,-1.9138 5.08162,-1.52363 l 3.60608,0.40177 2.28304,-3.4812 c 3.28536,-5.00952 6.75819,-7.85603 10.12232,-8.29677 4.73204,-0.61994 9.60635,2.70305 12.53601,8.54626 1.35798,2.7085 2.79398,8.50044 2.79398,11.26922 0,0.83548 1.04834,3.05087 2.47761,5.23579 3.05449,4.66937 3.52668,5.94651 3.52668,9.53874 0,3.87878 -1.59553,8.32388 -3.82554,10.65784 l -1.85548,1.94197 -18.5209,-0.0203 c -12.61362,-0.0138 -18.81553,-0.25515 -19.44464,-0.75663 z m 15.40367,-9.29803 c 0.89667,-0.45161 1.45453,-1.18808 1.45453,-1.92022 0,-1.68185 -0.98371,-2.6203 -2.07841,-1.98279 -1.57845,0.91921 -4.04513,0.68266 -4.92872,-0.47265 -2.00228,-2.61805 -0.0801,-8.23796 2.81759,-8.23796 1.09404,0 2.21922,1.0932 5.21702,5.06873 5.89438,7.81685 6.73355,8.49565 10.07156,8.1468 3.59434,-0.37564 5.51441,-2.77521 5.83759,-7.29539 0.5534,-7.74029 -4.81438,-12.13655 -10.04603,-8.22778 -2.15911,1.61316 -1.44841,2.67045 1.65358,2.45998 3.17825,-0.21564 4.63013,0.88607 5.08162,3.85603 0.5069,3.33452 -0.70701,5.33398 -3.23837,5.33398 -1.95237,0 -2.27864,-0.29703 -6.1523,-5.60101 -5.099,-6.98176 -6.37295,-7.98637 -9.63239,-7.59584 -1.92901,0.23112 -2.77996,0.71874 -3.8577,2.21056 -1.52639,2.11285 -2.51001,6.23931 -2.0301,8.51668 1.074,5.09669 5.72122,7.81059 9.83053,5.74088 l 0,0 z"
       id="path3026"
       inkscape:connector-curvature="0" />
  </g>
</svg>
