<?xml version="1.0" encoding="UTF-8" standalone="no"?>
<svg
   xmlns:dc="http://purl.org/dc/elements/1.1/"
   xmlns:cc="http://creativecommons.org/ns#"
   xmlns:rdf="http://www.w3.org/1999/02/22-rdf-syntax-ns#"
   xmlns:svg="http://www.w3.org/2000/svg"
   xmlns="http://www.w3.org/2000/svg"
   xmlns:sodipodi="http://sodipodi.sourceforge.net/DTD/sodipodi-0.dtd"
   xmlns:inkscape="http://www.inkscape.org/namespaces/inkscape"
   version="1.0"
   width="54.999996"
   height="54.999992"
   viewBox="0 0 43.999997 43.999994"
   preserveAspectRatio="xMidYMid meet"
   id="svg2"
   inkscape:version="0.48.4 r9939"
   sodipodi:docname="open.svg">
  <defs
     id="defs12" />
  <sodipodi:namedview
     pagecolor="#ffffff"
     bordercolor="#666666"
     borderopacity="1"
     objecttolerance="10"
     gridtolerance="10"
     guidetolerance="10"
     inkscape:pageopacity="0"
     inkscape:pageshadow="2"
     inkscape:window-width="1301"
     inkscape:window-height="744"
     id="namedview10"
     showgrid="false"
     fit-margin-top="0"
     fit-margin-left="0"
     fit-margin-right="0"
     fit-margin-bottom="0"
     inkscape:zoom="1.475"
     inkscape:cx="-84.865632"
     inkscape:cy="27.5"
     inkscape:window-x="65"
     inkscape:window-y="24"
     inkscape:window-maximized="1"
     inkscape:current-layer="svg2" />
  <metadata
     id="metadata4">
Created by potrace 1.10, written by Peter Selinger 2001-2011
<rdf:RDF>
  <cc:Work
     rdf:about="">
    <dc:format>image/svg+xml</dc:format>
    <dc:type
       rdf:resource="http://purl.org/dc/dcmitype/StillImage" />
    <dc:title></dc:title>
  </cc:Work>
</rdf:RDF>
</metadata>
  <g
     transform="matrix(0.03445111,0,0,-0.03606557,0,45.081962)"
     id="g6"
     style="fill:#000000;stroke:none">
    <path
       d="m 320,1243 c -27,-11 -30,-26 -30,-170 l 0,-143 -44,0 c -25,0 -48,-4 -51,-10 -3,-5 -23,-10 -43,-10 -20,0 -42,-4 -48,-8 -7,-4 -32,-41 -58,-83 L 0,742 79,399 C 137,146 163,53 176,43 190,33 300,30 701,30 c 468,0 508,1 528,17 21,17 22,30 31,318 5,165 12,353 15,417 7,158 7,158 -161,158 -109,0 -123,2 -128,18 -4,10 -68,80 -144,155 l -139,137 -184,-1 c -101,0 -191,-3 -199,-6 z m 330,-191 c 0,-78 4,-122 12,-130 8,-8 52,-12 130,-12 l 118,0 0,-60 0,-60 -165,0 -165,0 -35,54 c -39,62 -47,66 -121,66 l -54,0 0,130 0,130 140,0 140,0 0,-118 z m 190,-54 c 0,-4 -25,-8 -55,-8 l -55,0 0,62 0,62 55,-54 c 30,-30 55,-58 55,-62 z m 330,-383 c 0,-118 -3,-215 -7,-215 -5,0 -32,81 -62,179 -29,99 -59,185 -64,190 -6,6 -19,11 -29,11 -13,0 -18,8 -18,25 0,25 1,25 90,25 l 90,0 0,-215 z M 484,751 c 20,-32 43,-62 52,-65 9,-3 109,-6 223,-6 l 208,0 78,-252 c 43,-139 80,-261 83,-270 4,-17 -22,-18 -441,-18 -416,0 -446,1 -451,18 -2,9 -33,140 -67,290 l -63,274 23,44 24,44 148,0 148,0 35,-59 z"
       id="path8"
       inkscape:connector-curvature="0" />
  </g>
  <path
     style="fill:#ffffff;fill-opacity:1;stroke:#ffffff;stroke-width:0.19118157;stroke-opacity:1"
     d="M 9.230801,39.739049 C 8.624106,39.679117 8.38467,39.554878 8.25224,39.231295 8.155809,38.995669 7.109278,34.376823 5.926615,28.967189 l -2.150296,-9.835695 0.74856,-1.558581 0.74856,-1.55858 5.089672,0.0085 5.089672,0.0085 1.022406,1.756966 c 0.562323,0.966332 1.242249,1.97746 1.510947,2.246953 l 0.488541,0.489986 7.408283,0.123447 c 6.542817,0.109026 7.418446,0.159752 7.495286,0.43421 0.04785,0.17092 1.275959,4.347609 2.729121,9.281533 1.976446,6.710621 2.588499,9.026924 2.429305,9.193663 -0.155177,0.162526 -4.043789,0.227969 -14.357728,0.241625 -7.779702,0.0103 -14.506366,-0.01697 -14.948143,-0.06061 l 0,0 z"
     id="path2989"
     inkscape:connector-curvature="0" />
  <path
     style="fill:#ffffff;fill-opacity:1;stroke:#ffffff;stroke-width:0.19118157;stroke-opacity:1"
     d="m 18.91195,14.648764 c -0.67155,-1.045541 -1.35702,-1.880561 -1.693118,-2.062509 -0.337635,-0.18278 -1.313477,-0.353474 -2.426653,-0.42447 l -1.861918,-0.118749 0,-4.5672825 0,-4.567284 4.642887,0 4.642887,0 0.106899,4.156711 c 0.05879,2.28619 0.164047,4.3090325 0.233894,4.4952065 0.214435,0.571558 1.344847,0.735131 5.088144,0.736266 l 3.59693,0.0011 0,2.053904 0,2.053903 -5.600784,0 -5.600785,0 -1.128383,-1.756787 z"
     id="path2991"
     inkscape:connector-curvature="0" />
  <path
     style="fill:#ffffff;fill-opacity:1;stroke:#ffffff;stroke-width:0.19118157;stroke-opacity:1"
     d="m 25.267399,7.2607905 0.0048,-2.102807 1.817013,1.956099 1.817016,1.956099 -1.027696,0.127362 c -0.565232,0.07005 -1.385051,0.136068 -1.821822,0.146708 l -0.794127,0.01935 0.0048,-2.102806 z"
     id="path2993"
     inkscape:connector-curvature="0" />
  <path
     style="fill:#ffffff;fill-opacity:1;stroke:#ffffff;stroke-width:0.19118157;stroke-opacity:1"
     d="M 38.647499,26.088242 C 36.792205,20.026837 36.102023,17.92012 35.822682,17.465756 35.685106,17.241978 35.291843,16.975128 34.948765,16.872757 34.435876,16.719715 34.3149,16.579253 34.268253,16.082622 c -0.07433,-0.791368 0.137794,-0.844694 3.373381,-0.848058 l 2.569238,-0.0027 -0.0221,6.895249 c -0.01216,3.792387 -0.08102,7.159324 -0.153018,7.482079 -0.110958,0.497379 -0.32257,-0.03933 -1.388245,-3.520979 z"
     id="path2995"
     inkscape:connector-curvature="0" />
</svg>
