<?xml version="1.0" encoding="UTF-8" standalone="no"?>
<!-- Created with Inkscape (http://www.inkscape.org/) -->

<svg
   xmlns:dc="http://purl.org/dc/elements/1.1/"
   xmlns:cc="http://creativecommons.org/ns#"
   xmlns:rdf="http://www.w3.org/1999/02/22-rdf-syntax-ns#"
   xmlns:svg="http://www.w3.org/2000/svg"
   xmlns="http://www.w3.org/2000/svg"
   xmlns:sodipodi="http://sodipodi.sourceforge.net/DTD/sodipodi-0.dtd"
   xmlns:inkscape="http://www.inkscape.org/namespaces/inkscape"
   width="54.999989"
   height="55.000008"
   id="svg2"
   version="1.1"
   inkscape:version="0.48.4 r9939"
   sodipodi:docname="run-1.svg">
  <defs
     id="defs4" />
  <sodipodi:namedview
     id="base"
     pagecolor="#ffffff"
     bordercolor="#666666"
     borderopacity="1.0"
     inkscape:pageopacity="0.0"
     inkscape:pageshadow="2"
     inkscape:zoom="0.35"
     inkscape:cx="-861.42857"
     inkscape:cy="-499.28571"
     inkscape:document-units="px"
     inkscape:current-layer="layer1"
     showgrid="false"
     inkscape:window-width="1301"
     inkscape:window-height="744"
     inkscape:window-x="65"
     inkscape:window-y="24"
     inkscape:window-maximized="1"
     fit-margin-top="0"
     fit-margin-left="0"
     fit-margin-right="0"
     fit-margin-bottom="0" />
  <metadata
     id="metadata7">
    <rdf:RDF>
      <cc:Work
         rdf:about="">
        <dc:format>image/svg+xml</dc:format>
        <dc:type
           rdf:resource="http://purl.org/dc/dcmitype/StillImage" />
      </cc:Work>
    </rdf:RDF>
  </metadata>
  <g
     inkscape:label="Layer 1"
     inkscape:groupmode="layer"
     id="layer1"
     transform="translate(-381.07143,-487.71932)">
    <g
       id="g2989"
       transform="matrix(0.01731733,0,0,-0.01728925,375.54735,548.27495)"
       style="fill:#000000;stroke:none">
      <path
         id="path2991"
         d="m 1775,3499 c -66,-3 -140,-10 -165,-17 -25,-6 -65,-16 -90,-22 -128,-31 -188,-54 -313,-116 -108,-54 -131,-66 -137,-73 -7,-9 -42,-30 -67,-41 -13,-5 -23,-14 -23,-20 0,-5 -7,-10 -15,-10 -8,0 -15,-4 -15,-8 0,-5 -21,-24 -47,-42 -62,-44 -189,-171 -233,-232 -18,-27 -37,-48 -42,-48 -4,0 -8,-7 -8,-15 0,-8 -5,-15 -10,-15 -6,0 -15,-10 -20,-22 -11,-26 -32,-61 -41,-68 -7,-6 -21,-32 -73,-137 -74,-151 -88,-191 -140,-415 -22,-93 -23,-493 -1,-564 8,-27 15,-62 15,-77 0,-16 5,-38 12,-50 6,-12 15,-38 19,-57 15,-75 98,-265 149,-345 11,-16 23,-37 27,-45 7,-16 45,-72 53,-80 3,-3 28,-34 55,-70 63,-83 162,-182 245,-245 36,-27 67,-52 70,-55 8,-8 64,-46 80,-53 8,-4 29,-16 45,-27 78,-50 266,-132 345,-150 19,-4 49,-13 65,-18 81,-28 164,-37 378,-40 181,-2 241,0 289,13 33,8 71,15 84,15 14,0 35,5 47,12 12,6 38,15 57,19 75,15 261,96 345,150 17,10 37,22 45,26 37,17 221,163 281,222 59,60 205,244 222,281 4,8 16,29 26,45 53,82 133,266 151,345 4,19 13,49 18,65 29,85 37,169 37,400 0,231 -7,303 -37,390 -5,17 -14,46 -18,65 -18,79 -98,263 -151,345 -10,17 -22,37 -26,45 -7,16 -45,72 -53,80 -3,3 -28,34 -55,70 -63,83 -162,182 -245,245 -36,27 -67,52 -70,55 -8,8 -64,46 -80,53 -8,4 -28,16 -45,27 -75,48 -272,135 -335,147 -14,3 -39,11 -57,19 -17,8 -43,14 -58,14 -15,0 -50,6 -78,14 -60,17 -240,23 -412,15 z m 450,-156 c 123,-24 208,-50 301,-94 23,-10 46,-19 51,-19 5,0 32,-14 59,-32 27,-17 67,-43 89,-57 55,-35 200,-156 253,-211 124,-129 246,-317 303,-470 76,-203 94,-302 92,-525 -3,-318 -11,-365 -111,-610 -71,-177 -169,-320 -319,-468 -48,-48 -112,-104 -142,-125 -80,-55 -184,-122 -201,-128 -8,-4 -37,-17 -65,-29 -82,-38 -185,-76 -234,-86 -159,-32 -214,-38 -383,-39 -244,-2 -382,22 -578,102 -253,104 -470,273 -626,489 -113,155 -201,348 -238,524 -10,44 -22,96 -27,116 -5,20 -9,118 -9,217 0,183 20,337 55,431 7,20 16,50 20,66 6,28 30,82 96,221 59,124 291,401 388,462 14,9 49,33 76,53 49,36 205,115 315,159 220,87 553,109 835,53 z"
         inkscape:connector-curvature="0" />
      <path
         id="path2993"
         d="m 1738,3309 c -43,-4 -86,-13 -97,-19 -11,-5 -32,-10 -48,-10 -63,-1 -391,-142 -428,-185 -5,-6 -36,-29 -68,-49 -32,-21 -88,-66 -124,-100 -67,-61 -223,-242 -223,-258 0,-4 -15,-27 -32,-51 -18,-23 -48,-76 -66,-117 -19,-41 -40,-88 -47,-105 -14,-30 -35,-103 -70,-240 -26,-100 -30,-348 -9,-482 52,-332 233,-641 511,-873 43,-36 69,-55 159,-114 51,-34 175,-96 193,-96 5,0 38,-13 73,-30 34,-16 76,-30 91,-30 16,0 37,-4 47,-10 50,-27 336,-42 492,-25 113,11 288,66 417,131 244,121 444,303 593,540 58,92 147,298 169,390 6,27 18,69 27,94 22,68 29,346 10,413 -9,29 -23,86 -32,127 -20,85 -21,90 -70,220 -98,258 -345,545 -594,688 -104,60 -255,132 -276,132 -9,0 -42,9 -73,19 -32,11 -83,25 -114,31 -71,14 -310,19 -411,9 z m 267,-120 c 39,-6 97,-15 130,-19 109,-15 188,-41 335,-109 100,-46 260,-160 346,-245 87,-88 198,-245 248,-351 10,-22 25,-52 32,-67 8,-14 14,-34 14,-43 0,-9 6,-29 14,-43 21,-41 38,-110 43,-177 3,-37 10,-63 19,-68 20,-12 21,-332 0,-340 -8,-3 -16,-24 -18,-49 -6,-56 -27,-136 -44,-170 -8,-14 -14,-33 -14,-41 0,-9 -7,-28 -15,-44 -7,-15 -24,-48 -35,-73 -12,-25 -30,-58 -41,-75 -10,-16 -22,-37 -26,-45 -14,-31 -129,-177 -177,-226 -49,-48 -195,-163 -226,-177 -8,-4 -28,-16 -45,-26 -16,-11 -50,-29 -75,-41 -25,-11 -58,-28 -73,-35 -16,-8 -35,-15 -44,-15 -8,0 -27,-6 -41,-14 -37,-19 -104,-36 -182,-46 -239,-33 -201,-33 -440,0 -78,10 -145,27 -182,46 -14,8 -33,14 -41,14 -9,0 -28,6 -44,14 -15,8 -46,23 -68,33 -104,48 -263,160 -351,247 -178,179 -323,454 -353,676 -38,266 -38,224 3,485 19,120 100,318 177,433 16,24 29,47 29,53 0,5 4,9 9,9 4,0 21,18 35,41 35,53 162,180 215,215 23,14 41,31 41,35 0,5 5,9 10,9 9,0 65,35 80,50 5,5 127,64 175,85 92,40 172,63 265,76 36,5 90,13 120,18 78,12 115,12 195,0 z"
         inkscape:connector-curvature="0" />
      <path
         id="path2995"
         d="m 1585,1910 c 0,-473 3,-720 10,-720 6,0 26,14 45,32 48,42 825,625 867,650 18,11 33,28 33,38 0,10 -15,27 -33,38 -42,25 -819,608 -867,650 -19,18 -39,32 -45,32 -7,0 -10,-247 -10,-720 z m 188,428 c 48,-25 535,-397 541,-413 3,-9 2,-25 -4,-35 -11,-21 -501,-392 -543,-411 -52,-24 -52,-24 -52,424 0,227 3,420 7,430 9,20 21,21 51,5 z"
         inkscape:connector-curvature="0" />
    </g>
    <path
       style="fill:#ffffff;fill-opacity:1;stroke:#ffffff;stroke-width:0.39550367;stroke-opacity:1"
       d="m 405.58295,515.15649 c 0,-5.75726 0.10638,-7.27238 0.49478,-7.04666 0.47736,0.27741 6.65298,4.89866 8.54395,6.39348 l 0.92432,0.73068 -2.70553,2.15995 c -3.32046,2.65088 -6.68625,5.09675 -7.01368,5.09675 -0.13411,0 -0.24384,-3.30039 -0.24384,-7.3342 z"
       id="path3005"
       inkscape:connector-curvature="0" />
    <path
       style="fill:#ffffff;fill-opacity:1;stroke:#ffffff;stroke-width:0.39550367;stroke-opacity:1"
       d="m 403.99965,536.6862 c -0.97966,-0.18681 -3.26565,-1.08645 -5.07997,-1.9992 -13.65832,-6.87126 -16.37896,-24.47161 -5.42238,-35.07838 5.41595,-5.24304 12.43051,-7.31899 19.56806,-5.79114 5.51064,1.1796 10.92366,4.98686 14.06857,9.89518 1.80148,2.8116 2.75474,5.43537 3.42789,9.43502 0.45737,2.71751 0.42708,3.22688 -0.37162,6.24963 -1.30336,4.93276 -3.00508,8.00541 -6.20044,11.19558 -5.35756,5.34887 -12.4911,7.52329 -19.99011,6.09331 z m 7.03586,-14.52625 c 4.29416,-3.22482 8.04193,-6.14689 8.32837,-6.49351 0.45713,-0.55317 -0.45169,-1.36021 -7.4351,-6.60248 -4.37575,-3.28476 -8.21706,-6.07234 -8.53625,-6.19463 -0.50249,-0.19251 -0.58035,1.47988 -0.58035,12.46579 0,6.97847 0.0935,12.68813 0.20788,12.68813 0.11433,0 3.72128,-2.63848 8.01545,-5.8633 z"
       id="path3007"
       inkscape:connector-curvature="0" />
    <path
       style="fill:#ffffff;fill-opacity:1;stroke:#ffffff;stroke-width:0.39550367;stroke-opacity:1"
       d="m 402.4856,539.72245 c -1.15928,-0.29384 -3.64756,-1.29602 -5.52952,-2.22705 -8.15167,-4.03276 -13.54822,-12.75085 -13.53347,-21.86324 0.0102,-6.29029 1.75208,-11.39701 5.47876,-16.06207 3.43165,-4.29575 7.28621,-6.87694 12.82848,-8.59052 2.90004,-0.89665 10.32498,-0.86226 13.74872,0.0637 5.74774,1.55445 10.62731,5.07971 14.11271,10.19574 2.99988,4.40339 4.09523,8.13211 4.09523,13.94082 0,7.21772 -1.95311,12.22797 -6.77137,17.37034 -2.71453,2.89715 -5.68791,4.85528 -9.70705,6.39265 -2.29805,0.87903 -3.48523,1.06128 -7.66689,1.177 -3.28337,0.0909 -5.65687,-0.0428 -7.0556,-0.39735 z m 11.8055,-0.6602 c 0.97966,-0.2211 3.27715,-1.13773 5.10553,-2.03695 7.61997,-3.74764 13.04088,-11.88004 13.70739,-20.56369 0.21658,-2.82165 0.11015,-3.73236 -0.79507,-6.80373 -1.51197,-5.13008 -3.1005,-7.84086 -6.73513,-11.49333 -5.07726,-5.10217 -10.09872,-7.28848 -16.74002,-7.28848 -7.10518,0 -12.17742,2.1364 -17.30434,7.28848 -3.67777,3.69582 -5.31395,6.51369 -6.55509,11.28935 -0.72239,2.77962 -0.8325,4.00234 -0.64222,7.13151 0.39378,6.47572 2.73766,11.45715 7.59485,16.14122 5.12558,4.94291 9.45576,6.74099 16.22881,6.73893 2.39474,-8.3e-4 5.15562,-0.18222 6.13529,-0.40331 l 0,0 z"
       id="path3009"
       inkscape:connector-curvature="0" />
    <path
       style="fill:#ffffff;fill-opacity:1;stroke:#ffffff;stroke-width:2.85714293;stroke-opacity:1"
       d=""
       id="path3011"
       inkscape:connector-curvature="0" />
    <path
       style="fill:#000000;fill-opacity:1;stroke:#ffffff;stroke-width:0.39550367;stroke-opacity:1"
       d="m 405.56037,518.82424 c -0.22683,-3.7958 0.052,-10.80712 0.42974,-10.80712 0.23262,0 1.73568,1.10454 6.36132,4.67466 l 3.31491,2.55849 -0.93996,0.74246 c -1.83045,1.44583 -8.07116,6.12138 -8.50216,6.36982 -0.30039,0.17316 -0.50827,-0.93483 -0.66385,-3.53831 z"
       id="path3036"
       inkscape:connector-curvature="0" />
    <path
       style="fill:#000000;fill-opacity:1;stroke:#ffffff;stroke-width:2.85714293;stroke-opacity:1"
       d=""
       id="path3040"
       inkscape:connector-curvature="0" />
    <path
       style="fill:#000000;fill-opacity:1;stroke:#ffffff;stroke-width:2.85714293;stroke-opacity:1"
       d=""
       id="path3042"
       inkscape:connector-curvature="0" />
    <path
       style="fill:#000000;fill-opacity:1;stroke:#ffffff;stroke-width:2.85714293;stroke-opacity:1"
       d=""
       id="path3044"
       inkscape:connector-curvature="0" />
    <path
       style="fill:#000000;fill-opacity:1;stroke:#ffffff;stroke-width:2.85714293;stroke-opacity:1"
       d=""
       id="path3046"
       inkscape:connector-curvature="0" />
    <path
       style="fill:#000000;fill-opacity:1;stroke:#ffffff;stroke-width:2.85714293;stroke-opacity:1"
       d=""
       id="path3048"
       inkscape:connector-curvature="0" />
    <path
       style="fill:#000000;fill-opacity:1;stroke:#ffffff;stroke-width:2.85714293;stroke-opacity:1"
       d=""
       id="path3050"
       inkscape:connector-curvature="0" />
    <path
       style="fill:#000000;fill-opacity:1;stroke:#ffffff;stroke-width:2.85714293;stroke-opacity:1"
       d=""
       id="path3052"
       inkscape:connector-curvature="0" />
    <path
       style="fill:#000000;fill-opacity:1;stroke:#ffffff;stroke-width:2.85714293;stroke-opacity:1"
       d=""
       id="path3054"
       inkscape:connector-curvature="0" />
  </g>
</svg>
