<?xml version="1.0" encoding="UTF-8" standalone="no"?>
<!-- Created with Inkscape (http://www.inkscape.org/) -->

<svg
   xmlns:dc="http://purl.org/dc/elements/1.1/"
   xmlns:cc="http://creativecommons.org/ns#"
   xmlns:rdf="http://www.w3.org/1999/02/22-rdf-syntax-ns#"
   xmlns:svg="http://www.w3.org/2000/svg"
   xmlns="http://www.w3.org/2000/svg"
   xmlns:sodipodi="http://sodipodi.sourceforge.net/DTD/sodipodi-0.dtd"
   xmlns:inkscape="http://www.inkscape.org/namespaces/inkscape"
   width="54.999996"
   height="55"
   id="svg2"
   version="1.1"
   inkscape:version="0.48.4 r9939"
   sodipodi:docname="New document 1">
  <defs
     id="defs4" />
  <sodipodi:namedview
     id="base"
     pagecolor="#ffffff"
     bordercolor="#666666"
     borderopacity="1.0"
     inkscape:pageopacity="0.0"
     inkscape:pageshadow="2"
     inkscape:zoom="0.35"
     inkscape:cx="-431.78571"
     inkscape:cy="110.35715"
     inkscape:document-units="px"
     inkscape:current-layer="layer1"
     showgrid="false"
     fit-margin-top="0"
     fit-margin-left="0"
     fit-margin-right="0"
     fit-margin-bottom="0"
     inkscape:window-width="1301"
     inkscape:window-height="744"
     inkscape:window-x="65"
     inkscape:window-y="24"
     inkscape:window-maximized="1" />
  <metadata
     id="metadata7">
    <rdf:RDF>
      <cc:Work
         rdf:about="">
        <dc:format>image/svg+xml</dc:format>
        <dc:type
           rdf:resource="http://purl.org/dc/dcmitype/StillImage" />
        <dc:title></dc:title>
      </cc:Work>
    </rdf:RDF>
  </metadata>
  <g
     inkscape:label="Layer 1"
     inkscape:groupmode="layer"
     id="layer1"
     transform="translate(-332.5,-587.71933)">
    <g
       id="g2989"
       transform="matrix(0.05188679,0,0,-0.05,326.79245,647.21933)"
       style="fill:#000000;stroke:none">
      <path
         id="path2991"
         d="m 110,640 0,-550 530,0 530,0 0,498 0,498 -53,52 -53,52 -477,0 -477,0 0,-550 z m 850,340 0,-190 -292,0 -293,0 0,190 0,190 293,0 292,0 0,-190 z m -611,-8 c 2,-107 7,-192 13,-199 8,-10 81,-13 301,-13 256,0 293,2 309,17 16,14 18,35 18,200 l 0,183 30,0 c 22,0 43,-12 75,-41 l 45,-42 0,-478 c 0,-472 0,-479 -20,-479 -20,0 -20,7 -20,293 0,249 -2,296 -16,315 l -15,22 -411,0 C 289,750 245,748 228,733 211,718 210,695 210,418 l 0,-298 -35,0 -35,0 0,520 0,520 103,0 102,0 4,-188 z m 719,-559 2,-303 -415,0 -415,0 0,305 0,305 413,-2 412,-3 3,-302 z"
         inkscape:connector-curvature="0" />
      <path
         id="path2993"
         d="m 700,985 0,-145 85,0 86,0 -3,143 -3,142 -82,3 -83,3 0,-146 z m 140,0 0,-115 -55,0 -55,0 0,115 0,115 55,0 55,0 0,-115 z"
         inkscape:connector-curvature="0" />
      <path
         id="path2995"
         d="m 310,625 0,-35 300,0 300,0 0,35 0,35 -300,0 -300,0 0,-35 z m 438,-2 c -76,-2 -200,-2 -275,0 -76,1 -14,3 137,3 151,0 213,-2 138,-3 z"
         inkscape:connector-curvature="0" />
      <path
         id="path2997"
         d="m 310,505 0,-35 150,0 150,0 0,35 0,35 -150,0 -150,0 0,-35 z m 213,-2 c -35,-2 -91,-2 -125,0 -35,2 -7,3 62,3 69,0 97,-1 63,-3 z"
         inkscape:connector-curvature="0" />
      <path
         id="path2999"
         d="m 310,390 0,-30 240,0 240,0 0,30 0,30 -240,0 -240,0 0,-30 z"
         inkscape:connector-curvature="0" />
      <path
         id="path3001"
         d="m 310,270 0,-30 180,0 180,0 0,30 0,30 -180,0 -180,0 0,-30 z"
         inkscape:connector-curvature="0" />
    </g>
    <path
       style="fill:#000000;fill-opacity:1;stroke:#ffffff;stroke-width:0.3183406;stroke-opacity:1"
       d="m 364.95557,597.90301 0,-5.61451 2.57209,0 2.5721,0 0,5.61451 0,5.6145 -2.5721,0 -2.57209,0 0,-5.6145 z"
       id="path3016"
       inkscape:connector-curvature="0" />
    <path
       style="fill:#ffffff;fill-opacity:1;stroke:#ffffff;stroke-width:0.3183406;stroke-opacity:1"
       d="m 339.57755,626.56654 0,-15.07052 21.03849,0 21.03849,0 0.22417,3.5924 c 0.1233,1.97582 0.22418,8.75755 0.22418,15.07052 l 0,11.47812 -21.26267,0 -21.26266,0 0,-15.07052 z m 22.2915,7.23976 0,-1.62525 -9.60249,0 -9.6025,0 0,1.62525 0,1.62525 9.6025,0 9.60249,0 0,-1.62525 z m 6.17303,-6.20551 0,-1.62525 -12.68901,0 -12.68901,0 0,1.62525 0,1.62525 12.68901,0 12.68901,0 0,-1.62525 z m -9.60249,-5.6145 0,-1.92076 -7.88776,0 -7.88777,0 0,1.92076 0,1.92075 7.88777,0 7.88776,0 0,-1.92075 z m 15.77553,-5.91001 0,-1.92075 -15.77553,0 -15.77553,0 0,1.92075 0,1.92075 15.77553,0 15.77553,0 0,-1.92075 z"
       id="path3022"
       inkscape:connector-curvature="0" />
    <path
       style="fill:#ffffff;fill-opacity:1;stroke:#ffffff;stroke-width:0.3183406;stroke-opacity:1"
       d="m 334.09041,615.18978 0,-25.85628 5.10132,0 5.10133,0 0.21434,0.92344 c 0.11789,0.50789 0.22511,3.33361 0.23827,6.27938 0.0274,6.12859 0.40074,11.87792 0.79335,12.21683 0.48875,0.42189 15.00989,0.75959 22.958,0.53389 7.48439,-0.21252 7.86856,-0.25212 8.74513,-0.90145 l 0.91685,-0.67916 0.10807,-9.18646 0.10807,-9.18647 0.85758,0 c 1.27543,0 2.13032,0.46794 4.49915,2.46272 l 2.14342,1.80496 0,14.07049 c 0,16.71665 -0.34641,32.60558 -0.72228,33.12962 -0.1481,0.20647 -0.3934,0.2686 -0.54512,0.13806 -0.15172,-0.13054 -0.39866,-6.70896 -0.54875,-14.61871 -0.23977,-12.63652 -0.34379,-14.50685 -0.85736,-15.41562 l -0.58448,-1.03425 -19.71941,-0.0883 c -10.84567,-0.0486 -20.68877,-0.004 -21.87355,0.0984 -3.53503,0.30634 -3.31511,-0.74566 -3.43909,16.45059 l -0.10609,14.7146 -1.69437,0 -1.69438,0 0,-25.85628 z"
       id="path3024"
       inkscape:connector-curvature="0" />
    <path
       style="fill:#ffffff;fill-opacity:1;stroke:#ffffff;stroke-width:0.3183406;stroke-opacity:1"
       d="m 346.43647,598.19851 0,-9.45601 14.91816,0 14.91816,0 0,9.45601 0,9.45601 -14.91816,0 -14.91816,0 0,-9.45601 z m 25.56315,-0.0739 c -0.13794,-3.94123 -0.27461,-7.18349 -0.3037,-7.20502 -0.0291,-0.0215 -2.02056,-0.13465 -4.42547,-0.25138 l -4.37256,-0.21224 0,7.41726 0,7.41727 4.67627,0 4.67627,0 -0.25081,-7.16589 z"
       id="path3026"
       inkscape:connector-curvature="0" />
  </g>
</svg>
