<?xml version="1.0" encoding="UTF-8" standalone="no"?>
<!-- Created with Inkscape (http://www.inkscape.org/) -->

<svg
   xmlns:dc="http://purl.org/dc/elements/1.1/"
   xmlns:cc="http://creativecommons.org/ns#"
   xmlns:rdf="http://www.w3.org/1999/02/22-rdf-syntax-ns#"
   xmlns:svg="http://www.w3.org/2000/svg"
   xmlns="http://www.w3.org/2000/svg"
   xmlns:sodipodi="http://sodipodi.sourceforge.net/DTD/sodipodi-0.dtd"
   xmlns:inkscape="http://www.inkscape.org/namespaces/inkscape"
   width="15.522221mm"
   height="15.522219mm"
   viewBox="0 0 54.999994 54.999987"
   id="svg2"
   version="1.1"
   inkscape:version="0.91 r13725"
   sodipodi:docname="drawing-1.svg">
  <defs
     id="defs4" />
  <sodipodi:namedview
     id="base"
     pagecolor="#ffffff"
     bordercolor="#666666"
     borderopacity="1.0"
     inkscape:pageopacity="0.0"
     inkscape:pageshadow="2"
     inkscape:zoom="0.35"
     inkscape:cx="-561.78569"
     inkscape:cy="86.071313"
     inkscape:document-units="px"
     inkscape:current-layer="layer1"
     showgrid="false"
     fit-margin-top="0"
     fit-margin-left="0"
     fit-margin-right="0"
     fit-margin-bottom="0"
     inkscape:window-width="1301"
     inkscape:window-height="744"
     inkscape:window-x="65"
     inkscape:window-y="24"
     inkscape:window-maximized="1" />
  <metadata
     id="metadata7">
    <rdf:RDF>
      <cc:Work
         rdf:about="">
        <dc:format>image/svg+xml</dc:format>
        <dc:type
           rdf:resource="http://purl.org/dc/dcmitype/StillImage" />
        <dc:title></dc:title>
      </cc:Work>
    </rdf:RDF>
  </metadata>
  <g
     inkscape:label="Layer 1"
     inkscape:groupmode="layer"
     id="layer1"
     transform="translate(-445.35712,-563.43353)">
    <g
       transform="translate(168.92853,145.35704)"
       id="layer1-3"
       inkscape:label="Layer 1">
      <g
         style="fill:#000000;stroke:none"
         transform="matrix(0.0553668,0,0,-0.04531608,268.58727,474.20938)"
         id="g3370">
        <path
           inkscape:connector-curvature="0"
           d="m 145,1228 c -3,-7 -4,-281 -3,-608 l 3,-595 495,0 495,0 0,605 0,605 -493,3 c -389,2 -494,0 -497,-10 z m 965,-598 0,-580 -470,0 -470,0 0,580 0,580 470,0 470,0 0,-580 z"
           id="path3372" />
        <path
           inkscape:connector-curvature="0"
           d="m 257,1149 c -15,-11 -31,-37 -37,-57 -8,-25 -10,-184 -8,-480 l 3,-444 33,-29 32,-29 358,0 c 211,0 363,4 372,10 12,8 -8,32 -102,127 L 791,364 748,344 c -60,-27 -169,-26 -224,3 -154,81 -196,267 -91,404 73,96 215,128 325,73 122,-61 178,-207 128,-338 l -19,-48 102,-102 101,-101 0,309 0,310 -157,158 -157,158 -237,0 c -223,0 -238,-1 -262,-21 z"
           id="path3374" />
        <path
           inkscape:connector-curvature="0"
           d="m 587,736 c -49,-18 -64,-32 -89,-80 -52,-102 26,-226 142,-226 119,0 197,132 138,234 -39,68 -119,98 -191,72 z"
           id="path3376" />
      </g>
    </g>
    <path
       style="fill:#ffffff"
       d="m 447.05186,591.07813 0,-26.19048 25.78449,0 25.7845,0 0,26.19048 0,26.19048 -25.7845,0 -25.78449,0 0,-26.19048 z m 43.3966,23.42811 c 2.66568,-0.19573 3.18185,-0.33738 3.18185,-0.87314 0,-0.353 -2.7237,-2.89595 -6.07935,-5.67593 l -6.07935,-5.03642 -2.95431,0.89245 c -2.48617,0.75102 -3.51725,0.86906 -6.50695,0.7449 -4.23626,-0.17593 -6.56363,-1.02047 -9.3917,-3.40797 -6.86729,-5.7975 -4.7005,-15.20567 4.34549,-18.86807 1.97157,-0.79822 2.92284,-0.94715 6.08015,-0.95195 3.29396,-0.005 4.03693,0.11972 6.19411,1.03978 3.11587,1.32894 5.4447,3.35185 6.84455,5.94543 1.46399,2.71242 1.50785,6.88637 0.10109,9.62208 l -0.92651,1.80181 5.53799,4.59326 c 3.0459,2.52629 5.67836,4.60095 5.84991,4.61035 0.17155,0.009 0.31191,-6.31152 0.31191,-14.04647 l 0,-14.06355 -8.7763,-7.27669 -8.7763,-7.27669 -13.18052,0.11692 c -14.60164,0.12953 -14.62247,0.13284 -16.14859,2.55875 -0.67658,1.0755 -0.74595,2.86892 -0.85339,22.06395 l -0.11695,20.8933 1.78047,1.39895 1.78046,1.39895 17.3002,0.0148 c 9.51512,0.008 18.73203,-0.0903 20.48204,-0.21882 l 0,10e-6 z m -12.94708,-15.36446 c 2.8914,-1.38657 4.87314,-4.70504 4.32511,-7.24253 -0.78083,-3.61544 -4.53169,-6.19659 -8.95271,-6.16082 -3.80315,0.0308 -6.32345,1.32436 -7.93877,4.07472 -2.91525,4.9637 1.94966,10.77915 8.63161,10.31813 1.21261,-0.0837 2.96453,-0.52424 3.93476,-0.9895 z"
       id="path3350"
       inkscape:connector-curvature="0" />
  </g>
</svg>
